<?xml version="1.0" encoding="utf-8"?>
<!-- Generator: Adobe Illustrator 23.0.1, SVG Export Plug-In . SVG Version: 6.00 Build 0)  -->
<svg version="1.1" id="Layer_1" xmlns="http://www.w3.org/2000/svg" xmlns:xlink="http://www.w3.org/1999/xlink" x="0px" y="0px"
	 viewBox="0 0 48 48" style="enable-background:new 0 0 48 48;" xml:space="preserve">
<style type="text/css">
	.st0{fill:#0E1E35;}
	.st1{fill:#517BBE;}
</style>
<g>
	<path class="st0" d="M40.37,36.03c-0.06-0.16-2.58-5.29-3.45-7.04c-0.04,0-0.12,0.02-0.18,0.02c-0.02,0.02-0.12,0.06-0.24,0.06
		c-0.02,0.02-0.14,0.04-0.26,0.06c0,0.02-0.12,0.04-0.24,0.06c-0.02,0.02-0.12,0.04-0.24,0.06c-0.02,0.02-0.14,0.04-0.26,0.06
		c0,0-0.12,0.04-0.24,0.06c-0.02,0-0.12,0.04-0.24,0.06c0,0-0.12,0.04-0.24,0.06c-0.04,0.02-0.14,0.04-0.24,0.06
		c-0.02,0.02-0.14,0.04-0.24,0.06c-0.04,0.02-0.14,0.04-0.26,0.06c0,0.02-0.12,0.06-0.22,0.08c-0.04,0.02-0.14,0.04-0.26,0.06
		c0,0.02-0.12,0.04-0.24,0.06c-0.02,0.02-0.12,0.06-0.24,0.08c-0.02,0.02-0.12,0.04-0.24,0.06c-0.02,0.02-0.12,0.06-0.24,0.08
		c-0.02,0.02-0.12,0.06-0.24,0.08c-0.04,0.02-0.14,0.04-0.24,0.06c-0.02,0.02-0.14,0.06-0.24,0.08c-0.02,0.02-0.12,0.04-0.24,0.08
		c-0.02,0.02-0.12,0.04-0.24,0.06c-0.02,0.02-0.12,0.06-0.24,0.08c-0.02,0.02-0.12,0.06-0.22,0.08c-0.04,0.02-0.12,0.06-0.24,0.08
		c-0.02,0.02-0.14,0.06-0.24,0.08c-0.04,0.02-0.14,0.06-0.26,0.08c-0.02,0.04-0.12,0.06-0.22,0.1c-0.04,0.02-0.14,0.06-0.26,0.08
		c-0.02,0.02-0.14,0.06-0.24,0.08c-0.02,0.02-0.12,0.06-0.24,0.1c-0.04,0.02-0.14,0.06-0.24,0.08c-0.04,0.02-0.14,0.06-0.26,0.1
		c-0.02,0.02-0.12,0.06-0.24,0.08c-0.02,0.04-0.12,0.08-0.22,0.1c-0.04,0.02-0.14,0.06-0.24,0.1c-0.04,0.02-0.14,0.06-0.26,0.08
		c0,0.02-0.04,0.04-0.12,0.06c-0.14,0.08-0.2,0.1-0.26,0.12c-0.02,0.02-0.14,0.08-0.26,0.12c0,0-0.12,0.06-0.24,0.08
		c-0.02,0.04-0.12,0.08-0.24,0.1c-0.04,0.04-0.14,0.08-0.24,0.12c0,0-0.12,0.06-0.24,0.1c0,0-0.1,0.06-0.22,0.1
		c-0.04,0.02-0.14,0.06-0.24,0.1c0,0.02-0.12,0.06-0.22,0.1c0.32,0.83,3.22,8.11,3.29,8.27c0.87,2.41,3.16,4.12,5.86,4.12
		c3.45,0,6.25-2.8,6.25-6.25C41.06,37.8,40.81,36.87,40.37,36.03z"/>
	<path class="st1" d="M47.49,24.25c-0.12-0.1-0.24-0.18-0.37-0.24c-0.1-0.04-0.18-0.08-0.26-0.1c-0.1-0.02-0.2-0.02-0.28-0.02
		c-0.1,0-0.2,0-0.3,0.02c-0.18-0.04-0.37-0.04-0.55,0c-0.2-0.04-0.37-0.06-0.55-0.02c-0.1-0.02-0.2-0.04-0.28-0.04h-0.06
		c-0.08,0-0.14,0.02-0.22,0.04c-0.1-0.02-0.2-0.04-0.28-0.04H44.3c-0.08,0-0.14,0.02-0.22,0.04c-0.1-0.02-0.2-0.04-0.28-0.04
		c-0.1,0-0.18,0.02-0.28,0.04c-0.2-0.02-0.37-0.02-0.55,0.02c-0.18-0.04-0.37-0.04-0.55,0c-0.06,0-0.1,0-0.14-0.02h-0.1
		c-0.12,0-0.2,0.02-0.32,0.04c-0.04,0-0.1,0-0.14-0.02h-0.06c-0.12,0-0.22,0.02-0.34,0.06c-0.2-0.02-0.37-0.02-0.55,0.02
		c-0.2-0.02-0.37,0-0.55,0.04c-0.18-0.02-0.36,0-0.53,0.04c-0.2-0.02-0.37,0-0.55,0.04c-0.18-0.02-0.36,0-0.53,0.04
		c-0.2,0-0.37,0.02-0.55,0.06c-0.18,0-0.36,0.02-0.53,0.06c-0.2,0-0.37,0.02-0.53,0.06c-0.2,0-0.37,0.02-0.55,0.08
		c-0.18,0-0.36,0.02-0.53,0.06c-0.1,0-0.18,0.02-0.26,0.02c-0.1,0.02-0.2,0.04-0.28,0.06h-0.14c-0.06,0-0.1,0-0.14,0.02
		c-0.08,0.02-0.16,0.04-0.26,0.06h-0.06V24.6c-0.02,0-0.06,0.02-0.08,0.02c-0.1,0-0.18,0.02-0.28,0.04c-0.08,0-0.18,0.02-0.26,0.04
		c-0.1,0.02-0.18,0.02-0.28,0.06c-0.08,0-0.18,0.02-0.26,0.04c-0.1,0-0.18,0.02-0.26,0.04c-0.1,0.02-0.18,0.04-0.28,0.06
		c-0.08,0-0.18,0.02-0.26,0.04c-0.1,0.02-0.18,0.04-0.28,0.06c-0.08,0.02-0.18,0.02-0.26,0.06c-0.1,0-0.18,0.02-0.26,0.04
		c-0.1,0.02-0.18,0.04-0.28,0.06c-0.08,0.02-0.18,0.04-0.26,0.06c-0.08,0.02-0.18,0.02-0.26,0.06c-0.1,0.02-0.18,0.02-0.26,0.06
		c-0.1,0-0.18,0.02-0.28,0.06c-0.08,0.02-0.18,0.02-0.26,0.06c-0.1,0.02-0.18,0.02-0.26,0.06c-0.1,0.02-0.18,0.04-0.26,0.06
		c-0.1,0.02-0.18,0.04-0.28,0.06c-0.08,0.02-0.16,0.04-0.26,0.08c-0.08,0-0.18,0.04-0.26,0.06c-0.1,0.02-0.18,0.04-0.28,0.08
		c-0.1,0.02-0.18,0.04-0.28,0.06c-0.08,0.02-0.18,0.04-0.26,0.08c-0.1,0.02-0.18,0.04-0.28,0.08c-0.1,0.02-0.18,0.04-0.26,0.06
		c-0.1,0.02-0.2,0.06-0.28,0.08c-0.1,0.02-0.18,0.04-0.28,0.08c-0.08,0.02-0.18,0.04-0.26,0.08c-0.1,0.02-0.18,0.04-0.28,0.08
		c-0.08,0.02-0.18,0.06-0.26,0.08c-0.1,0.02-0.18,0.06-0.26,0.08c-0.1,0.04-0.18,0.06-0.28,0.1c-0.08,0.02-0.14,0.02-0.22,0.06
		c-0.1,0.02-0.2,0.04-0.3,0.08c-0.1,0.04-0.18,0.06-0.28,0.1c-0.08,0.02-0.18,0.04-0.26,0.08c-0.08,0.02-0.18,0.06-0.26,0.1
		c-0.1,0.02-0.18,0.04-0.26,0.08c-0.1,0.04-0.18,0.06-0.28,0.1c-0.08,0.02-0.18,0.06-0.26,0.1c-0.08,0.02-0.18,0.04-0.26,0.08
		c-0.04,0.02-0.06,0.02-0.08,0.04c-0.12,0.04-0.22,0.1-0.32,0.16c-0.18,0.04-0.36,0.1-0.51,0.2c-0.2,0.04-0.36,0.1-0.53,0.2
		c-0.18,0.04-0.34,0.1-0.51,0.2c-0.18,0.06-0.34,0.12-0.51,0.2c-0.18,0.06-0.34,0.12-0.49,0.22c-0.2,0.06-0.36,0.12-0.51,0.22
		c-0.18,0.06-0.36,0.14-0.51,0.22c-0.18,0.06-0.34,0.14-0.49,0.24c-0.18,0.06-0.36,0.12-0.51,0.22c-0.18,0.08-0.34,0.14-0.49,0.24
		c-0.18,0.08-0.34,0.14-0.49,0.24c-0.18,0.08-0.34,0.16-0.49,0.26c-0.18,0.06-0.34,0.14-0.49,0.24c-0.14,0.06-0.28,0.12-0.41,0.2
		c-0.08,0.02-0.14,0.04-0.2,0.08c-0.08,0.04-0.16,0.08-0.24,0.14c-0.1,0.04-0.18,0.08-0.26,0.12c-0.08,0.06-0.16,0.1-0.24,0.14
		c-0.04,0.02-0.08,0.04-0.12,0.06c-0.04,0.02-0.08,0.06-0.12,0.08c-0.08,0.04-0.18,0.08-0.24,0.12c-0.1,0.06-0.18,0.1-0.26,0.14
		c-0.08,0.04-0.16,0.1-0.24,0.14c-0.08,0.04-0.16,0.08-0.24,0.14c-0.08,0.04-0.16,0.08-0.24,0.14c-0.08,0.04-0.16,0.08-0.24,0.14
		c-0.08,0.04-0.16,0.08-0.24,0.14c-0.08,0.04-0.16,0.08-0.24,0.14c-0.08,0.04-0.16,0.1-0.24,0.14c-0.08,0.04-0.16,0.1-0.24,0.14
		c-0.08,0.06-0.16,0.1-0.24,0.16c-0.04,0.02-0.08,0.04-0.12,0.06c-0.02,0.02-0.06,0.04-0.08,0.04c0.02-0.02,0.02-0.06,0.02-0.08
		c0.1-0.16,0.18-0.32,0.24-0.49c0.02-0.02,0.2-0.41,0.49-1.03c0.02,0,0.02,0,0.02,0c1.58-3.33,6.47-13.61,6.53-13.75
		c0.02-0.02,0.02-0.04,0.04-0.06c0.04,0.12,0.1,0.24,0.14,0.34c0.04,0.14,2.49,6.31,3.45,8.7c0.04,0,0.1-0.02,0.14-0.04
		c0.02-0.02,0.14-0.06,0.28-0.1c0-0.02,0.12-0.06,0.26-0.1c0.02-0.02,0.14-0.06,0.28-0.1c0.02,0,0.14-0.06,0.28-0.08
		c0-0.02,0.12-0.06,0.26-0.1c0-0.02,0.14-0.06,0.26-0.08c0.02-0.02,0.14-0.06,0.28-0.1c0.02-0.02,0.18-0.06,0.32-0.1
		c0.22-0.06,0.34-0.1,0.47-0.14c0-0.02,0.14-0.04,0.28-0.08c0-0.02,0.12-0.06,0.26-0.08c0.02-0.02,0.14-0.06,0.28-0.08
		c0.02-0.02,0.14-0.06,0.28-0.08c0.02-0.02,0.14-0.06,0.28-0.08c0-0.02,0.12-0.06,0.26-0.08c0.02-0.02,0.14-0.06,0.28-0.08
		c0.02-0.02,0.14-0.04,0.28-0.08c0.02-0.02,0.14-0.04,0.28-0.08c0,0,0.14-0.04,0.28-0.06c0-0.02,0.14-0.04,0.28-0.08
		c0-0.02,0.12-0.04,0.26-0.06c0.02-0.02,0.14-0.04,0.28-0.08c0,0,0.12-0.04,0.26-0.06c0-0.02,0.14-0.04,0.28-0.06
		c0-0.02,0.12-0.04,0.26-0.06c0.02-0.02,0.14-0.04,0.28-0.08c0,0,0.12-0.02,0.26-0.06c0.02,0,0.14-0.02,0.26-0.06
		c0.02,0,0.14-0.02,0.28-0.04c0-0.02,0.14-0.04,0.28-0.06c0-0.02,0.12-0.04,0.26-0.06c0.02-0.02,0.14-0.04,0.28-0.06
		c0,0,0.12-0.02,0.26-0.06c0,0,0.14-0.02,0.28-0.04c0-0.02,0.14-0.04,0.26-0.06c0.02,0,0.14-0.02,0.28-0.04
		c0.02-0.02,0.14-0.04,0.28-0.06c0,0,0.14-0.02,0.28-0.04c0-0.02,0.12-0.04,0.26-0.04c0-0.02,0.14-0.04,0.28-0.06
		c-0.85-1.76-2.74-5.64-4.64-9.53c-2.54-5.19-5.07-10.38-5.11-10.46c-0.71-1.8-2.47-3.1-4.54-3.1c-1.74,0-3.25,0.91-4.12,2.29
		c-0.3,0.39-0.51,0.83-0.67,1.26c-0.08,0.18-0.12,0.34-0.18,0.49C15,4.82,0.41,42.48,0.35,42.63c-0.59,1.2-0.43,2.66,0.53,3.71
		c1.22,1.34,3.31,1.42,4.66,0.18c0.08-0.06,0.14-0.14,0.22-0.22c0.14-0.14,0.28-0.3,0.41-0.45c0.12-0.12,0.22-0.24,0.32-0.37
		c0.14-0.12,0.24-0.24,0.34-0.36c0.14-0.12,0.24-0.24,0.34-0.37c0.14-0.12,0.24-0.24,0.36-0.36c0.12-0.12,0.24-0.24,0.34-0.36
		c0.14-0.12,0.24-0.24,0.36-0.37c0.12-0.1,0.24-0.22,0.34-0.34c0.14-0.12,0.26-0.24,0.36-0.36c0.14-0.12,0.26-0.22,0.36-0.36
		c0.14-0.1,0.26-0.22,0.37-0.34c0.12-0.1,0.24-0.22,0.36-0.36c0.14-0.1,0.26-0.2,0.37-0.34c0.14-0.1,0.26-0.22,0.36-0.34
		c0.14-0.1,0.28-0.2,0.37-0.32c0.14-0.1,0.28-0.22,0.37-0.34c0.14-0.1,0.28-0.22,0.39-0.34c0.14-0.1,0.26-0.2,0.37-0.32
		c0.08-0.06,0.16-0.12,0.22-0.18c0.06-0.04,0.1-0.08,0.16-0.14c0.16-0.1,0.28-0.2,0.39-0.32c0.14-0.1,0.28-0.2,0.39-0.32
		c0.14-0.1,0.28-0.2,0.39-0.32c0.14-0.08,0.28-0.18,0.39-0.3c0.02,0,0.04-0.02,0.06-0.04c0.12-0.1,0.24-0.18,0.34-0.28
		c0.08-0.04,0.14-0.08,0.22-0.14c0.02,0,0.04-0.02,0.06-0.04c0.04-0.04,0.1-0.08,0.14-0.12c0.14-0.08,0.28-0.18,0.39-0.3
		c0.16-0.08,0.3-0.18,0.41-0.3c0.16-0.08,0.3-0.18,0.41-0.28c0.02-0.02,0.06-0.02,0.08-0.04c0.06-0.04,0.14-0.08,0.2-0.14
		c0.04-0.04,0.1-0.08,0.14-0.12c0.16-0.08,0.3-0.18,0.41-0.28c0.16-0.08,0.3-0.18,0.41-0.28c0.02,0,0.06-0.02,0.08-0.04
		c0.08-0.04,0.14-0.08,0.22-0.14c0.06-0.04,0.1-0.06,0.14-0.1c0.08-0.04,0.16-0.08,0.22-0.12c0.02-0.02,0.04-0.02,0.06-0.04
		c0.06-0.04,0.1-0.08,0.14-0.12c0.1-0.04,0.2-0.1,0.3-0.16c0.08-0.04,0.14-0.08,0.22-0.14c0.1-0.06,0.2-0.16,0.28-0.22
		c0.16-0.08,0.3-0.16,0.43-0.26c0.16-0.08,0.3-0.18,0.45-0.26c0.16-0.08,0.3-0.16,0.43-0.26c0.16-0.08,0.3-0.16,0.43-0.26
		c0.16-0.06,0.3-0.16,0.45-0.24c0.16-0.08,0.3-0.16,0.43-0.26c0.18-0.06,0.32-0.14,0.45-0.24c0.18-0.06,0.32-0.14,0.45-0.24
		c0.18-0.06,0.32-0.14,0.45-0.22c0.18-0.06,0.32-0.14,0.45-0.24c0.18-0.06,0.32-0.14,0.47-0.22c0.16-0.06,0.32-0.14,0.45-0.22
		c0.18-0.06,0.32-0.14,0.47-0.22c0.06-0.02,0.1-0.04,0.14-0.04c0.06-0.02,0.12-0.04,0.18-0.08c0.02,0,0.04,0,0.06-0.02
		c0.08-0.02,0.16-0.06,0.24-0.1c0.08-0.04,0.16-0.08,0.24-0.12c0.08-0.02,0.16-0.06,0.24-0.1c0.08-0.02,0.16-0.06,0.24-0.1
		c0.08-0.02,0.16-0.06,0.24-0.1c0.08-0.02,0.16-0.06,0.24-0.1c0.08-0.02,0.16-0.06,0.24-0.1c0.08-0.02,0.16-0.06,0.26-0.1
		c0.04-0.02,0.08-0.06,0.14-0.08c0,0,0.04,0,0.06-0.02c0.08-0.02,0.14-0.06,0.22-0.1c0.08-0.02,0.16-0.06,0.24-0.1
		c0.08-0.02,0.16-0.06,0.24-0.08c0.1-0.02,0.18-0.06,0.26-0.1c0.08-0.02,0.16-0.06,0.24-0.1c0.08-0.02,0.16-0.04,0.24-0.08
		c0.08-0.02,0.16-0.06,0.24-0.1c0.1-0.02,0.18-0.06,0.26-0.08c0.08-0.02,0.16-0.06,0.24-0.1c0.1-0.02,0.16-0.04,0.26-0.08
		c0.08-0.02,0.16-0.06,0.24-0.08c0.08-0.02,0.16-0.06,0.26-0.08c0.08-0.02,0.16-0.06,0.24-0.1c0.08-0.02,0.16-0.04,0.24-0.08
		c0.08-0.02,0.16-0.04,0.24-0.08c0.08,0,0.16-0.04,0.24-0.06c0.08-0.02,0.16-0.06,0.24-0.08c0.08-0.02,0.16-0.06,0.24-0.08
		c0.1-0.02,0.16-0.04,0.24-0.08c0.1-0.02,0.16-0.04,0.26-0.08c0.08,0,0.16-0.04,0.24-0.06c0.08-0.02,0.16-0.04,0.24-0.08
		c0.08-0.02,0.16-0.04,0.24-0.06c0.1-0.02,0.16-0.06,0.24-0.08c0.1-0.02,0.18-0.04,0.26-0.06c0.08-0.02,0.16-0.04,0.24-0.08
		c0.08,0,0.16-0.04,0.24-0.06c0.1-0.02,0.18-0.04,0.26-0.06c0.08-0.02,0.16-0.04,0.24-0.08c0.1,0,0.16-0.04,0.26-0.06
		c0.08,0,0.16-0.04,0.24-0.06c0.08,0,0.16-0.04,0.26-0.06c0.08-0.02,0.16-0.04,0.24-0.06c0.08-0.02,0.16-0.04,0.26-0.06
		c0.08,0,0.16-0.04,0.24-0.06c0.08,0,0.16-0.04,0.26-0.06c0.08,0,0.16-0.02,0.24-0.06c0.04,0,0.08,0,0.1-0.02
		c0.02,0,0.04,0,0.06-0.02h0.1c0.02,0,0.02,0,0.04-0.02c0.1,0,0.18-0.02,0.28-0.04c0.02-0.02,0.04-0.02,0.06-0.02l0.02-0.02h0.06
		c0.1,0,0.2-0.02,0.3-0.06c0.08-0.02,0.16-0.04,0.24-0.06c0.1,0,0.18-0.02,0.26-0.04c0.06-0.02,0.12-0.02,0.18-0.04
		c0.04,0,0.06-0.02,0.08-0.02c0.08,0,0.16-0.02,0.26-0.04c0.02,0,0.02,0,0.04,0c0.04-0.02,0.06-0.02,0.1-0.04h0.1
		c0.02,0,0.04,0,0.06-0.02c0.12,0,0.24-0.04,0.36-0.06c0.04,0,0.06-0.02,0.1-0.02c0.1,0,0.18-0.02,0.26-0.04h0.06
		c0.04-0.02,0.06-0.02,0.1-0.04h0.1c0.08,0,0.16-0.02,0.26-0.04c0.06,0,0.1-0.02,0.16-0.04h0.1c0.08,0,0.16-0.02,0.26-0.04
		c0.06,0,0.1-0.02,0.16-0.04h0.1c0.08,0,0.16-0.02,0.26-0.04c0.08,0,0.16-0.02,0.26-0.02c0.08-0.02,0.16-0.02,0.26-0.04
		c0.06,0,0.1-0.02,0.16-0.04h0.18c0.06-0.02,0.12-0.02,0.18-0.02c0.04,0,0.1-0.02,0.16-0.04h0.18c0.06-0.02,0.12-0.02,0.18-0.02
		c0.04,0,0.1-0.02,0.16-0.04h0.1c0.1,0,0.18,0,0.26-0.02c0.1,0,0.18-0.02,0.26-0.02c0.1,0,0.18-0.02,0.28-0.04
		c0.08,0,0.16,0,0.26-0.02c0.08,0,0.18,0,0.26-0.02c0.1,0,0.18,0,0.26-0.02c0.1,0,0.18,0,0.28-0.02c0.08,0,0.16,0,0.26-0.02
		c0.1,0.02,0.22,0.02,0.32-0.02c0.08,0.02,0.14,0,0.2-0.02c0.1,0.02,0.18,0.02,0.28,0c0.08,0,0.18,0,0.26-0.02
		c0.12,0.02,0.24,0.02,0.36-0.02h0.18c0.32,0.04,0.63-0.04,0.91-0.22c0.02,0,0.02,0,0.02,0c0.12-0.1,0.22-0.18,0.3-0.28
		c0.1-0.1,0.18-0.22,0.24-0.36C48.15,25.33,47.97,24.66,47.49,24.25z"/>
</g>
</svg>
